<svg width="22" height="22" xmlns="http://www.w3.org/2000/svg" xmlns:xlink="http://www.w3.org/1999/xlink" xml:space="preserve" overflow="hidden"><defs><clipPath id="clip0"><rect x="534" y="75" width="22" height="22"/></clipPath></defs><g clip-path="url(#clip0)" transform="translate(-534 -75)"><path d="M545 75C544.573 75 544.228 75.3457 544.228 75.7722L544.228 90.6424 541.588 88.0024C541.287 87.7016 540.798 87.7016 540.497 88.0024 540.196 88.3033 540.196 88.7927 540.497 89.0935L544.452 93.049C544.6 93.1971 544.798 93.2735 544.995 93.2735 545.193 93.2735 545.391 93.1971 545.539 93.049L549.494 89.0935C549.795 88.7927 549.795 88.3033 549.494 88.0024 549.193 87.7016 548.704 87.7016 548.403 88.0024L545.763 90.6424 545.763 75.7678C545.768 75.3412 545.427 75 545 75Z" fill="#FFFFFF"/><path d="M554.747 96.2322 554.747 91.7559C554.747 91.3294 554.402 90.9837 553.975 90.9837 553.549 90.9837 553.203 91.3294 553.203 91.7559L553.203 95.4645 536.793 95.4645 536.793 91.7559C536.793 91.3294 536.447 90.9837 536.025 90.9837 535.603 90.9837 535.253 91.3294 535.253 91.7559L535.253 96.2322C535.253 96.6588 535.598 97 536.025 97L553.975 97C554.402 97 554.747 96.6588 554.747 96.2322Z" fill="#FFFFFF"/></g></svg>